# xmcd CD database file
#
# Track frame offsets:
#	150
#	21275
#	42037
#	65162
#	88312
#	108580
#	128737
#	153582
#	177492
#	192257
#	211355
#	233437
#
# Disc length: 3491 seconds
#
# Revision: 0
# Processed by: cddbd v1.5PL3 Copyright (c) Steve Scherf et al.
# Submitted via: CDex 1.51
#
DISCID=a70da10c
DTITLE=Toshinori Yonekura - amore
DYEAR=1995
DGENRE=JPop
TTITLE0=Cupidity
TTITLE1=BABYLON
TTITLE2=Temptation
TTITLE3=KNOCKOUT
TTITLE4=いつでも君に会うだけで
TTITLE5=無邪気な君が愛しい
TTITLE6=Jamaica, Under the sky
TTITLE7=MY BEST WISH
TTITLE8=SPARK
TTITLE9=CRISIS
TTITLE10=すべての微笑みで
TTITLE11=Baby Baby Baby
EXTD=YEAR: 1995
EXTT0=
EXTT1=
EXTT2=
EXTT3=
EXTT4=
EXTT5=
EXTT6=
EXTT7=
EXTT8=
EXTT9=
EXTT10=
EXTT11=
PLAYORDER=
